HIERARCHY
ROOT Hips
{
  OFFSET 0 0.240689 0
  CHANNELS 6 Xposition Yposition Zposition Zrotation Xrotation Yrotation
  JOINT Bip01_Spine0
  {
    OFFSET 0 -24.7459 49.7988
    CHANNELS 6 Xposition Yposition Zposition Zrotation Xrotation Yrotation
    JOINT Bip01_Pelvis
    {
      OFFSET 0 0 0
      CHANNELS 6 Xposition Yposition Zposition Zrotation Xrotation Yrotation
      JOINT Bip01_Spine0_Tail
      {
        OFFSET -6.47486 -3.86022 0
        CHANNELS 6 Xposition Yposition Zposition Zrotation Xrotation Yrotation
        JOINT Bip01_Spine0_Tail1
        {
          OFFSET 10.3837 -0.00825882 0
          CHANNELS 6 Xposition Yposition Zposition Zrotation Xrotation Yrotation
          JOINT Bip01_Spine0_Tail2
          {
            OFFSET 10.3837 -0.00826263 0
            CHANNELS 6 Xposition Yposition Zposition Zrotation Xrotation Yrotation
            JOINT Bip01_Spine0_Tail3
            {
              OFFSET 10.3837 -0.00825882 0
              CHANNELS 6 Xposition Yposition Zposition Zrotation Xrotation Yrotation
              JOINT Bip01_Spine0_Tail4
              {
                OFFSET 10.3837 -0.00826263 0
                CHANNELS 6 Xposition Yposition Zposition Zrotation Xrotation Yrotation
                End Site
                {
                  OFFSET 0 0 0
                }
              }
            }
          }
        }
      }
      JOINT Bip01_R_Thigh
      {
        OFFSET 0 -1.52588e-005 -8.75617
        CHANNELS 6 Xposition Yposition Zposition Zrotation Xrotation Yrotation
        JOINT Bip01_R_Calf
        {
          OFFSET 19.7638 0 0
          CHANNELS 6 Xposition Yposition Zposition Zrotation Xrotation Yrotation
          JOINT Bip01_R_Foot
          {
            OFFSET 18.6534 0 0
            CHANNELS 6 Xposition Yposition Zposition Zrotation Xrotation Yrotation
            JOINT Bip01_R_Toe0
            {
              OFFSET 5.09145 13.9567 0
              CHANNELS 6 Xposition Yposition Zposition Zrotation Xrotation Yrotation
              JOINT Bip01_R_Toe01
              {
                OFFSET 4.28803 0 0
                CHANNELS 6 Xposition Yposition Zposition Zrotation Xrotation Yrotation
                JOINT Bip01_R_Toe02
                {
                  OFFSET 3.85801 0 0
                  CHANNELS 6 Xposition Yposition Zposition Zrotation Xrotation Yrotation
                  End Site
                  {
                    OFFSET 0 0 0
                  }
                }
              }
            }
          }
        }
      }
      JOINT Bip01_L_Thigh
      {
        OFFSET 0 1.52588e-005 8.75617
        CHANNELS 6 Xposition Yposition Zposition Zrotation Xrotation Yrotation
        JOINT Bip01_L_Calf
        {
          OFFSET 19.7638 0 0
          CHANNELS 6 Xposition Yposition Zposition Zrotation Xrotation Yrotation
          JOINT Bip01_L_Foot
          {
            OFFSET 18.6534 0 0
            CHANNELS 6 Xposition Yposition Zposition Zrotation Xrotation Yrotation
            JOINT Bip01_L_Toe0
            {
              OFFSET 5.09144 13.9567 0
              CHANNELS 6 Xposition Yposition Zposition Zrotation Xrotation Yrotation
              JOINT Bip01_L_Toe01
              {
                OFFSET 4.28802 0 0
                CHANNELS 6 Xposition Yposition Zposition Zrotation Xrotation Yrotation
                JOINT Bip01_L_Toe02
                {
                  OFFSET 3.85801 0 0
                  CHANNELS 6 Xposition Yposition Zposition Zrotation Xrotation Yrotation
                  End Site
                  {
                    OFFSET 0 0 0
                  }
                }
              }
            }
          }
        }
      }
      JOINT Bip01_Spine
      {
        OFFSET 9.14835 -0.00640869 -1.1e-005
        CHANNELS 6 Xposition Yposition Zposition Zrotation Xrotation Yrotation
        JOINT Bip01_Spine1
        {
          OFFSET 8.04366 -0.00638199 0
          CHANNELS 6 Xposition Yposition Zposition Zrotation Xrotation Yrotation
          JOINT Bip01_Spine2
          {
            OFFSET 8.04367 -0.00639343 0
            CHANNELS 6 Xposition Yposition Zposition Zrotation Xrotation Yrotation
            JOINT Bip01_Spine3
            {
              OFFSET 8.04304 -0.00831222 0
              CHANNELS 6 Xposition Yposition Zposition Zrotation Xrotation Yrotation
              JOINT Bip01_Neck
              {
                OFFSET 10.6685 1.06813 0
                CHANNELS 6 Xposition Yposition Zposition Zrotation Xrotation Yrotation
                JOINT Bip01_R_Clavicle
                {
                  OFFSET -3.21661 -4.89635 -9.04802
                  CHANNELS 6 Xposition Yposition Zposition Zrotation Xrotation Yrotation
                  JOINT Bip01_R_UpperArm
                  {
                    OFFSET 19.0492 0 0
                    CHANNELS 6 Xposition Yposition Zposition Zrotation Xrotation Yrotation
                    JOINT Bip01_R_Forearm
                    {
                      OFFSET 10.3706 0 0
                      CHANNELS 6 Xposition Yposition Zposition Zrotation Xrotation Yrotation
                      JOINT Bip01_R_Hand
                      {
                        OFFSET 22.8632 0 0
                        CHANNELS 6 Xposition Yposition Zposition Zrotation Xrotation Yrotation
                        JOINT Bip01_R_Finger0
                        {
                          OFFSET 6.48259 0.103651 0.504496
                          CHANNELS 6 Xposition Yposition Zposition Zrotation Xrotation Yrotation
                          JOINT Bip01_R_Finger01
                          {
                            OFFSET 3.66847 0 0
                            CHANNELS 6 Xposition Yposition Zposition Zrotation Xrotation Yrotation
                            End Site
                            {
                              OFFSET 0 0 0
                            }
                          }
                        }
                      }
                    }
                  }
                }
                JOINT Bip01_L_Clavicle
                {
                  OFFSET -3.21661 -4.89641 9.04797
                  CHANNELS 6 Xposition Yposition Zposition Zrotation Xrotation Yrotation
                  JOINT Bip01_L_UpperArm
                  {
                    OFFSET 19.0492 0 0
                    CHANNELS 6 Xposition Yposition Zposition Zrotation Xrotation Yrotation
                    JOINT Bip01_L_Forearm
                    {
                      OFFSET 10.3706 0 0
                      CHANNELS 6 Xposition Yposition Zposition Zrotation Xrotation Yrotation
                      JOINT Bip01_L_Hand
                      {
                        OFFSET 22.8631 0 0
                        CHANNELS 6 Xposition Yposition Zposition Zrotation Xrotation Yrotation
                        JOINT Bip01_L_Finger0
                        {
                          OFFSET 6.48257 0.103655 -0.504492
                          CHANNELS 6 Xposition Yposition Zposition Zrotation Xrotation Yrotation
                          JOINT Bip01_L_Finger01
                          {
                            OFFSET 3.66844 0 0
                            CHANNELS 6 Xposition Yposition Zposition Zrotation Xrotation Yrotation
                            End Site
                            {
                              OFFSET 0 0 0
                            }
                          }
                        }
                      }
                    }
                  }
                }
                JOINT Bip01_Neck1
                {
                  OFFSET 7.52459 -0.00656509 0
                  CHANNELS 6 Xposition Yposition Zposition Zrotation Xrotation Yrotation
                  JOINT Bip01_Neck2
                  {
                    OFFSET 8.4783 -0.00588226 0
                    CHANNELS 6 Xposition Yposition Zposition Zrotation Xrotation Yrotation
                    JOINT Bip01_Head
                    {
                      OFFSET 8.41606 0 0
                      CHANNELS 6 Xposition Yposition Zposition Zrotation Xrotation Yrotation
                      JOINT EyesBlue
                      {
                        OFFSET 0 0 0
                        CHANNELS 6 Xposition Yposition Zposition Zrotation Xrotation Yrotation
                        JOINT EyesBlue_2
                        {
                          OFFSET 0 -0.500007 0
                          CHANNELS 6 Xposition Yposition Zposition Zrotation Xrotation Yrotation
                          End Site
                          {
                            OFFSET 0 0 0
                          }
                        }
                      }
                      JOINT Bip01_Head2_Eyeleds
                      {
                        OFFSET 6.52751 7.61746 2.2e-005
                        CHANNELS 6 Xposition Yposition Zposition Zrotation Xrotation Yrotation
                        End Site
                        {
                          OFFSET 0 0 0
                        }
                      }
                      JOINT Bip01_Head_Muzzle
                      {
                        OFFSET 2.88628 13.9448 3.88994
                        CHANNELS 6 Xposition Yposition Zposition Zrotation Xrotation Yrotation
                        End Site
                        {
                          OFFSET 0 0 0
                        }
                      }
                      JOINT Bip01_Head1_Jaw
                      {
                        OFFSET 0.271065 1.32405 0
                        CHANNELS 6 Xposition Yposition Zposition Zrotation Xrotation Yrotation
                        JOINT _Bip01_Head11_TungeControler
                        {
                          OFFSET 4.61616 5.82872 0
                          CHANNELS 6 Xposition Yposition Zposition Zrotation Xrotation Yrotation
                          JOINT _Bip01_Ponytail3_tunge
                          {
                            OFFSET 5.17785 2.98805 0
                            CHANNELS 6 Xposition Yposition Zposition Zrotation Xrotation Yrotation
                            JOINT Bip01_Ponytail31
                            {
                              OFFSET 5.57569 0 0
                              CHANNELS 6 Xposition Yposition Zposition Zrotation Xrotation Yrotation
                              JOINT Bip01_Ponytail32
                              {
                                OFFSET 2.93165 0 0
                                CHANNELS 6 Xposition Yposition Zposition Zrotation Xrotation Yrotation
                                JOINT Bip01_Ponytail3Nub
                                {
                                  OFFSET 3.30155 0 0
                                  CHANNELS 6 Xposition Yposition Zposition Zrotation Xrotation Yrotation
                                  End Site
                                  {
                                    OFFSET 0 0 0
                                  }
                                }
                              }
                            }
                          }
                        }
                        JOINT Bip01_Head_JawNub
                        {
                          OFFSET 15.5776 -0.000389099 0
                          CHANNELS 6 Xposition Yposition Zposition Zrotation Xrotation Yrotation
                          End Site
                          {
                            OFFSET 0 0 0
                          }
                        }
                      }
                      JOINT Bip01_Ponytail2
                      {
                        OFFSET 9.40334 1.03973 -6.51764
                        CHANNELS 6 Xposition Yposition Zposition Zrotation Xrotation Yrotation
                        JOINT Bip01_Ponytail21
                        {
                          OFFSET 2.77018 -0.00640106 1.33514e-005
                          CHANNELS 6 Xposition Yposition Zposition Zrotation Xrotation Yrotation
                          End Site
                          {
                            OFFSET 0 0 0
                          }
                        }
                      }
                      JOINT Bip01_Ponytail1
                      {
                        OFFSET 9.40368 1.03969 6.51768
                        CHANNELS 6 Xposition Yposition Zposition Zrotation Xrotation Yrotation
                        JOINT Bip01_Ponytail11
                        {
                          OFFSET 2.77018 -0.00640487 0
                          CHANNELS 6 Xposition Yposition Zposition Zrotation Xrotation Yrotation
                          End Site
                          {
                            OFFSET 0 0 0
                          }
                        }
                      }
                    }
                  }
                }
              }
            }
          }
        }
      }
    }
  }
}
MOTION
Frames:	4
Frame Time:	0.0333333
0 0 0.240689 -0 -90 -0 -0.26242 -24.7456 49.7974 90 -3.50835e-015 90 0 0 0 -89.9995 -7.57423e-005 -93.899 -6.45924 -3.86079 0.44023 133.255 2.84197 -2.67096 10.3791 -0.007095 3.5e-005 -29.7604 0.000317 0.000547 10.3833 -0.008132 0.000116 0.500424 0.00051 0.000506 10.3851 -0.007953 0.000137 13.1322 0.000972 0.000771 10.3846 -0.007999 9.5e-005 9.58411 0.000929 0.000785 7e-006 -1.5e-005 -8.75617 -97.4883 -11.9751 173.961 19.7638 -3e-006 1e-006 -60.8864 0.000780194 0.00299998 18.6534 -7.10543e-015 1.77636e-015 -27.4932 1.40142 7.5544 5.09143 13.9567 -1.32805e-006 114.819 3.10073 1.66909 4.288 -5e-006 3e-006 64.9987 0.00147196 0.000330772 3.85799 -1e-006 -1e-006 -45 5.23569e-006 1.50128e-005 -1.7e-005 6.99998e-006 8.75617 -110.949 -4.43458 -179.21 19.7638 7.10543e-015 3.55271e-015 -63.6022 0.000731998 0.003125 18.6534 3e-006 0 -25.499 1.14657 -5.71941 5.09143 13.9567 1.00311e-006 115 0.000634847 4.99906 4.288 -1e-006 1e-006 64.9997 0.00230347 0.000509298 3.85799 3.55271e-015 0 -44.9998 0.000652225 0.00157648 9.1271 -0.006317 -0.622116 -6.64055e-005 -0.000216715 3.899 8.04366 0.000294396 -0.0077275 0.0477614 0.000957544 0.1111 8.04367 -0.006401 5.64014e-010 -8.97861e-007 4.16637e-005 0.054077 8.04299 -0.008228 7.00053e-006 -4.29727 0.00132789 0.0548357 10.67 1.06797 1.02629e-006 0.69085 -3.064e-007 1e-005 -4.30513 -3.97474 -9.04799 179.261 -85.4176 114.998 19.0492 1.77636e-015 -3e-006 89.7465 8.41696 -103.465 10.3706 1e-006 9.99999e-007 -58.538 -0.000414397 -0.00150599 22.8631 1.77636e-014 -7.10542e-015 -16.6216 -0.171235 2.45086 6.48255 0.103651 0.504495 -78.3098 -0.29885 -15.494 3.66843 3.10862e-014 2e-006 40.108 3.90017e-005 1.70185e-005 -4.30503 -3.97462 9.04782 179.266 85.4169 -115.001 19.0492 5.32907e-015 -3e-006 88.6342 -8.31388 99.4937 10.3706 -1.77636e-014 0 -58.5382 -0.000690403 -0.00240859 22.8631 -3.55272e-015 -1e-006 -16.4586 -8.55686 -2.45243 6.48256 0.103653 -0.504496 -75.9418 0.957463 15.4724 3.66844 2e-006 3.2152e-013 40.109 2.0061e-005 -1.2406e-005 7.52562 -0.006721 -2.16954e-010 -4.48654 1.28292e-006 1.21447e-005 8.47686 -0.00645 -6.31466e-011 15.6197 -5.04231e-006 -4.4875e-005 8.41605 3e-006 -8.9373e-015 -74.0208 0.196611 -0.0866688 -3e-006 3e-006 -3e-006 -23.1098 1.37701e-015 90 -3.91897e-009 -0.499996 -3.71669e-006 118.686 90 -28.6859 0 0 0 -113.554 -7.01671e-015 -179.995 2.8863 13.9448 3.88993 -22.9892 1.37021e-015 90 0 0 0 -85.3358 -7.01671e-015 -180 0 0 0 -120.289 -2.23951e-007 -1.98085e-005 0 0 0 133.74 -1.99473e-005 4.60075e-006 0 0 0 1.83152 -5.70295e-008 -1.28139e-008 0 0 0 -17.65 2.37062e-007 1.38792e-007 0 0 0 -26.1943 5.72041e-008 8.79058e-008 15.5776 -0.000396 -7e-006 0 7.76503e-019 -0 9.40334 1.03971 -6.51764 -19.0867 17.2452 20.3009 2.77017 -0.006393 -9.99381e-007 2.43506 1.48076e-006 1.02003e-005 9.40368 1.03968 6.51767 -19.0868 -17.2452 -20.3008 2.77018 -0.006404 -1.0006e-006 2.43506 -5.26687e-007 -1.75271e-005 
0 0 0.240689 -0 -90 -0 -0.00952673 -25.5338 49.2688 89.9933 -0.400732 87.6966 0 0 0 -89.9997 -3.27679e-005 -90.4394 -6.47263 -3.86079 0.0495763 135.791 0.517219 -2.85425 10.3791 -0.007095 3.5e-005 -24.8007 -0.232211 1.61212 10.3833 -0.008132 0.000116 -0.125444 -0.0142114 1.46673 10.3851 -0.007953 0.000137 15.5971 -0.124316 2.05804 10.3846 -0.007999 9.49998e-005 12.5705 0.935304 0.911189 7e-006 -1.5e-005 -8.75617 -94.0894 -8.50516 174.597 19.7638 -3e-006 1e-006 -62.9617 0.00071978 0.0030014 18.6534 0 -3.55271e-015 -27.5138 0.536296 7.77048 5.09143 13.9567 -7.96391e-007 114.823 3.10069 1.66782 4.288 -5e-006 3e-006 65.0026 0.00147335 0.000330414 3.85799 -1e-006 -1e-006 -45 3.97886e-006 1.41338e-005 -1.7e-005 7e-006 8.75617 -114.19 -0.827653 -179.02 19.7638 -1.77636e-015 5.32907e-015 -73.4934 0.000445548 0.00312689 18.6534 3e-006 0 -17.5902 -0.558975 -4.97106 5.09143 13.9567 7.76774e-007 112.472 -0.153874 5.00243 4.288 -1e-006 1e-006 62.7187 0.00228253 0.000600518 3.85799 -1.77636e-015 -5.32907e-015 -44.9991 0.0006514 0.00157565 9.14571 -0.006317 -0.0700483 1.73453 0.159415 2.17603 8.04366 -0.006282 0.000103001 1.69277 -0.141769 -1.54799 8.04367 -0.006401 1.1404e-009 1.40757 -0.0116681 -0.866115 8.04299 -0.008228 6.99848e-006 0.279733 -0.271923 -1.02644 10.67 1.06797 1.34007e-006 -0.0330757 0.0752011 1.17353 -4.06994 -4.03981 -9.12707 -165.996 -85.1992 129.072 19.0492 2.30926e-014 -3e-006 86.6746 1.34957 -105.267 10.3706 1e-006 9.99999e-007 -73.907 -0.000211335 -0.0015087 22.8631 -1.42109e-014 -3.9968e-015 -15.7995 -0.0187493 2.6404 6.48255 0.103651 0.504495 -78.3169 -0.297925 -15.4943 3.66843 -2.99982e-013 2e-006 40.13 4.65838e-005 1.15904e-005 -4.43813 -4.01649 8.96449 165.513 85.3402 -102.472 19.0492 2.66454e-014 -3e-006 84.7027 -1.90371 96.3587 10.3706 1.06581e-014 -8.88178e-016 -84.002 -0.000129998 -0.00241258 22.8631 -3.55272e-015 -1e-006 -8.18876 -11.058 -5.92192 6.48256 0.103653 -0.504496 -45.8119 8.72234 12.8645 3.66844 2e-006 -4.53859e-013 36.6434 1.87506e-007 1.931e-006 7.52562 -0.006721 -2.49428e-010 0.61702 0.615584 2.39041 8.47686 -0.00645 3.80151e-009 17.3931 -0.472943 -1.00777 8.41605 3e-006 -1.61149e-013 -77.7443 0.342712 -0.678455 -3e-006 3e-006 -3e-006 -23.1098 1.37701e-015 90 2.23854e-009 -0.499996 -3.67692e-006 -116.43 90 -153.57 0 0 0 -113.549 -1.52588e-005 -180 2.8863 13.9448 3.88993 -22.9892 1.37021e-015 90 0 0 0 -85.3358 -7.01671e-015 -180 0 0 0 -120.289 2.30583e-006 -2.08606e-005 0 0 0 133.74 -1.67362e-005 5.9845e-006 0 0 0 1.83152 1.10849e-007 4.74946e-008 0 0 0 -17.65 -5.6767e-007 -4.83949e-007 0 0 0 -26.1943 -1.97652e-007 -4.20813e-007 15.5776 -0.000396 -6.99999e-006 -6.36111e-015 -3.72721e-017 2.48481e-017 9.40334 1.03971 -6.51764 -16.0481 8.95034 19.5101 2.77017 -0.006393 -1.00009e-006 2.41322 -4.12435 -0.108043 9.40368 1.03968 6.51767 -16.0482 -8.95034 -19.51 2.77018 -0.006404 -1.00004e-006 2.41322 4.12435 0.108045 
0 0 0.240689 -0 -90 -0 0.246354 -26.3378 48.7338 89.9703 -0.804887 85.36 0 0 0 -90.0004 -6.15454e-005 -86.5487 -6.46038 -3.86079 -0.389771 138.802 -1.96662 -2.78621 10.3791 -0.007095 3.50001e-005 -19.2179 -0.330628 3.5554 10.3833 -0.008132 0.000116 -1.01894 -0.0771514 3.20028 10.3851 -0.007953 0.000137 18.1935 -0.137428 4.37906 10.3846 -0.007999 9.49994e-005 15.7589 2.11058 1.86696 7e-006 -1.5e-005 -8.75617 -90.9548 -4.49287 174.735 19.7638 -3e-006 1e-006 -65.2098 0.000655391 0.00300238 18.6534 7.10543e-015 0 -27.8226 -0.512643 7.95055 5.09143 13.9567 -3.37894e-008 114.816 3.10106 1.66755 4.288 -5e-006 3e-006 64.9956 0.00147564 0.000330344 3.85799 -1e-006 -1e-006 -45 1.95704e-006 1.25633e-005 -1.7e-005 7.00001e-006 8.75617 -117.514 3.07306 -178.277 19.7638 -8.88178e-015 0 -83.2862 0.000178552 0.00312516 18.6534 3e-006 -8.88178e-016 -9.72934 -2.29317 -4.19536 5.09143 13.9567 6.07496e-007 107.775 -0.441311 4.98904 4.288 -1e-006 1e-006 58.4799 0.00223595 0.000767199 3.85799 -1.42109e-014 1.77636e-015 -44.9982 0.000647671 0.00157284 9.12822 -0.006317 0.550655 3.46805 0.139709 -0.00971505 8.04366 -0.006282 0.000103001 3.40598 -0.335535 -3.1683 8.04367 -0.006401 8.47986e-010 2.78747 -0.0448626 -1.76791 8.04299 -0.008228 6.99833e-006 4.93693 -0.636694 -2.09639 10.67 1.06797 1.20518e-006 -0.825293 0.143612 2.58833 -3.78288 -4.11043 -9.21818 -150.656 -84.5759 143.662 19.0492 3.55272e-014 -3e-006 83.4226 -3.66217 -107.157 10.3706 1e-006 9.99999e-007 -86.4715 -4.12379e-005 -0.00151035 22.8631 8.88179e-015 -2.66453e-015 -16.0243 -0.0132701 2.97147 6.48256 0.103651 0.504495 -78.2986 -0.303797 -15.4938 3.66843 -6.4948e-013 2e-006 40.0803 5.51032e-005 5.52137e-006 -4.60391 -4.06532 8.85804 150.327 84.8842 -88.4664 19.0492 3.37508e-014 -3e-006 81.4624 4.42704 93.0957 10.3706 3.55272e-015 -6.21725e-015 -109.472 0.000403766 -0.00241946 22.8631 -3.55272e-014 -1e-006 0.218664 -14.1021 -9.07962 6.48256 0.103653 -0.504496 -13.8823 14.1659 6.35975 3.66844 2e-006 -4.61853e-014 33.0912 9.55475e-006 -1.58152e-006 7.52562 -0.006721 -4.87108e-011 6.15135 1.51973 4.972 8.47686 -0.00645 1.91457e-009 19.3111 -1.02441 -2.0434 8.41605 3e-006 -2.14051e-013 -80.8884 0.696783 -1.56765 -3e-006 3e-006 -3e-006 -23.1098 1.37701e-015 90 8.70178e-009 -0.499996 -3.64593e-006 -91.8101 90 -178.19 0 0 0 -113.549 -1.52588e-005 -180 2.8863 13.9448 3.88993 -22.9892 1.37021e-015 90 0 0 0 -85.3358 -1.52588e-005 -180 0 0 0 -120.289 8.03031e-006 -2.14784e-005 0 0 0 133.74 -1.22572e-005 9.85961e-006 0 0 0 1.83152 1.10834e-007 7.21238e-008 0 0 0 -17.65 -5.97318e-007 -7.17475e-007 0 0 0 -26.1943 -1.92811e-007 -7.31701e-007 15.5776 -0.000396 -6.99999e-006 -9.54166e-015 1.73937e-016 7.45443e-017 9.40334 1.03971 -6.51764 -12.9579 0.0346788 19.1599 2.77017 -0.006393 -1.00116e-006 2.38081 -8.54175 -0.226512 9.40368 1.03968 6.51767 -12.9579 -0.0346752 -19.1598 2.77018 -0.006404 -9.99128e-007 2.38081 8.54175 0.226504 
0 0 0.240689 -0 -90 -0 0.501179 -27.1335 48.1972 89.9308 -1.20876 83.0267 0 0 0 -89.9997 -3.72488e-006 -82.9892 -6.42466 -3.86079 -0.790229 141.634 -4.10562 -2.51506 10.3791 -0.007095 3.50001e-005 -14.1108 -0.257293 5.26095 10.3833 -0.008132 0.000116 -1.71472 -0.139467 4.73018 10.3851 -0.007953 0.000137 20.6798 -0.0700773 6.49774 10.3846 -0.007999 9.4999e-005 18.7558 3.18759 2.69011 7e-006 -1.5e-005 -8.75617 -88.0338 -0.756482 174.325 19.7638 -3e-006 1e-006 -67.3849 0.000593936 0.00300292 18.6534 -1.42109e-014 3.55271e-015 -28.8756 -1.74186 8.07841 5.09143 13.9567 8.39177e-007 114.824 3.10124 1.66923 4.288 -5e-006 3e-006 65.0069 0.00147888 0.000329811 3.85799 -1e-006 -1e-006 -45 -7.21593e-007 1.03969e-005 -1.7e-005 7e-006 8.75617 -120.015 6.54307 -177.351 19.7638 1.24345e-014 6.21725e-015 -88.6353 3.55603e-005 0.00312459 18.6534 3e-006 -2.66453e-015 -5.34647 -3.95876 -3.42443 5.09143 13.9567 4.7894e-007 105.185 -0.598377 4.97166 4.288 -1e-006 1e-006 56.1432 0.00220508 0.000857364 3.85799 -3.55271e-015 -7.10543e-015 -44.9994 0.00064577 0.00157129 9.07756 -0.006317 1.11645 5.18133 -0.0273529 -1.85427 8.04366 -0.006282 0.000103001 5.10792 -0.577225 -4.7817 8.04367 -0.006401 7.46426e-010 4.18032 -0.10052 -2.67755 8.04299 -0.008228 6.99829e-006 9.54587 -1.08472 -3.1349 10.67 1.06797 1.17126e-006 -1.58545 0.189682 3.88369 -3.53054 -4.17141 -9.29091 -140.401 -83.8045 153.229 19.0492 4.79617e-014 -3e-006 80.1172 -6.90486 -108.965 10.3706 1e-006 1e-006 -96.7646 8.88422e-005 -0.0014635 22.8631 0 3.55271e-015 -16.9101 -0.226101 3.42613 6.48256 0.103651 0.504495 -78.3265 -0.296372 -15.4943 3.66843 -9.69891e-013 2e-006 40.1549 6.38065e-005 -6.0857e-007 -4.74108 -4.11207 8.76368 139.894 84.2475 -79.236 19.0492 3.19744e-014 -3e-006 79.0265 4.85651 90.2588 10.3706 7.10543e-015 -5.32907e-015 -127.292 0.000835631 -0.00241891 22.8631 -4.9738e-014 -9.99999e-007 7.8644 -17.0818 -11.4124 6.48256 0.103653 -0.504496 15.2247 15.4533 -1.23383 3.66844 2e-006 4.52971e-014 29.9491 8.70926e-006 -5.63422e-006 7.52562 -0.006721 -6.77181e-011 11.4154 2.61704 7.33286 8.47686 -0.00645 1.5195e-009 21.1431 -1.58525 -3.03959 8.41605 3e-006 -2.28928e-013 -84.4808 0.879123 -2.09346 -3e-006 3e-006 -3e-006 -23.1098 1.37701e-015 90 1.59234e-008 -0.499996 -3.63466e-006 -82.1579 90 172.158 0 0 0 -113.549 -1.52588e-005 -180 2.8863 13.9448 3.88993 -22.9892 1.37021e-015 90 0 0 0 -85.3358 -1.52588e-005 -180 0 0 0 -120.289 8.62025e-005 -2.2023e-005 0 0 0 133.74 4.21774e-005 6.6108e-005 0 0 0 1.83152 1.02021e-007 9.15357e-008 0 0 0 -17.65 -5.35297e-007 -8.98863e-007 0 0 0 -26.1943 -7.95444e-008 -1.01072e-006 15.5776 -0.000396 -6.99998e-006 0 0 -1.49089e-016 9.40334 1.03971 -6.51764 -9.98817 -8.59102 19.2784 2.77017 -0.006393 -1.00229e-006 2.34018 -12.8125 -0.345132 9.40368 1.03968 6.51767 -9.98829 8.59102 -19.2783 2.77018 -0.006404 -9.98119e-007 2.34019 12.8125 0.345113 
